<svg xmlns="http://www.w3.org/2000/svg" width="46" height="46" viewBox="0 0 46 46" fill="none"><ellipse cx="23.5" cy="22.5" rx="17.5" ry="16.5" fill="#FBFBFB"></ellipse><path d="M41.4888 12.9622L32.3047 3.92653C29.6911 1.36904 26.1794 -0.0422328 22.5366 0.00096316C18.8938 0.0441591 15.416 1.53832 12.8628 4.15707L3.89643 13.4122C1.35793 16.0466 -0.0425719 19.5866 0.000986471 23.2585C0.0445448 26.9303 1.52862 30.4356 4.12889 33.0081L13.3093 42.0401C15.9235 44.5978 19.4359 46.0092 23.0793 45.966C26.7227 45.9228 30.2011 44.4286 32.7549 41.8096L41.7176 32.5545C44.2554 29.9207 45.6559 26.3818 45.613 22.7108C45.5701 19.0399 44.0875 15.5352 41.4888 12.9622ZM25.0172 32.5731L24.5339 33.7444C24.443 33.9611 24.2878 34.1442 24.0897 34.2687C23.8915 34.3932 23.66 34.4529 23.4269 34.4397H20.2536C20.0468 34.4249 19.8482 34.3519 19.6806 34.229C19.5129 34.1061 19.3829 33.9381 19.3053 33.7444L18.8183 32.5731L18.0471 30.7139L11.5086 14.8735C11.4486 14.7359 11.4168 14.5876 11.4151 14.4373C11.4134 14.2871 11.4418 14.138 11.4986 13.9991C11.5555 13.8602 11.6396 13.7343 11.746 13.629C11.8523 13.5236 11.9787 13.441 12.1175 13.3861L16.656 11.4823C16.7923 11.4217 16.9393 11.3895 17.0882 11.3875C17.2371 11.3855 17.3849 11.4139 17.5227 11.4708C17.6605 11.5277 17.7855 11.6121 17.8902 11.7189C17.9949 11.8256 18.0771 11.9526 18.1319 12.0921L21.9104 21.3026L25.6999 12.1144C25.8156 11.8365 26.036 11.6163 26.3127 11.5019C26.5894 11.3876 26.8998 11.3886 27.1758 11.5046L31.7143 13.4084C31.8528 13.4637 31.9788 13.5466 32.0847 13.6521C32.1907 13.7576 32.2744 13.8835 32.3309 14.0224C32.3874 14.1613 32.4155 14.3102 32.4136 14.4603C32.4116 14.6104 32.3796 14.7585 32.3195 14.8958L25.7884 30.7027L25.0172 32.5731ZM32.2826 33.8931C31.5935 33.8938 30.9197 33.6886 30.3464 33.3033C29.7731 32.9181 29.3261 32.3701 29.0619 31.7288C28.7977 31.0875 28.7281 30.3816 28.8621 29.7004C28.9961 29.0193 29.3276 28.3935 29.8146 27.9022C30.3016 27.4109 30.9222 27.0762 31.598 26.9405C32.2738 26.8047 32.9743 26.874 33.611 27.1396C34.2477 27.4052 34.7919 27.8551 35.1748 28.4324C35.5577 29.0097 35.7621 29.6885 35.7621 30.3829C35.7621 31.3132 35.3956 32.2055 34.7432 32.8637C34.0908 33.5219 33.2057 33.8921 32.2826 33.8931Z" fill="#20463B"></path></svg>