<svg xmlns="http://www.w3.org/2000/svg" width="160" height="44" viewBox="0 0 160 44" fill="none">
    <g clip-path="url(#clip0_9_1153)">
        <path d="M69.0301 18.5368L66.6538 17.5793C66.5533 17.5385 66.4454 17.5173 66.3364 17.5169C66.2273 17.5164 66.1193 17.5368 66.0184 17.5768C65.9176 17.6169 65.826 17.6758 65.7488 17.7501C65.6717 17.8244 65.6105 17.9128 65.569 18.01L61.7536 26.8086L57.9309 18.01C57.8461 17.8143 57.6843 17.659 57.4809 17.5782C57.2775 17.4975 57.0492 17.4979 56.8461 17.5793L54.4661 18.5368C54.2639 18.6193 54.1037 18.7757 54.0207 18.9718C53.9377 19.1679 53.9387 19.3878 54.0234 19.5832L59.8128 32.9163C59.8765 33.0619 59.9833 33.1861 60.1198 33.2734C60.2563 33.3608 60.4165 33.4074 60.5803 33.4075H62.9307C63.0945 33.4074 63.2546 33.3608 63.3911 33.2734C63.5276 33.1861 63.6344 33.0619 63.6982 32.9163L69.4765 19.5761C69.5587 19.381 69.5579 19.1626 69.4743 18.9681C69.3908 18.7736 69.2312 18.6186 69.0301 18.5368Z"
              fill="#20463B"/>
        <path d="M141.96 18.5368L139.584 17.5793C139.482 17.5356 139.372 17.5122 139.261 17.5103C139.15 17.5084 139.039 17.5281 138.936 17.5683C138.833 17.6084 138.739 17.6683 138.66 17.7442C138.581 17.82 138.519 17.9105 138.477 18.01L134.68 26.8086L130.869 18.01C130.827 17.9128 130.766 17.8244 130.689 17.7501C130.612 17.6758 130.52 17.6169 130.419 17.5768C130.318 17.5368 130.21 17.5164 130.101 17.5168C129.992 17.5173 129.884 17.5385 129.784 17.5793L127.407 18.5368C127.206 18.6186 127.047 18.7736 126.963 18.9681C126.88 19.1626 126.879 19.381 126.961 19.5761L132.739 32.9092C132.803 33.0547 132.91 33.1789 133.046 33.2663C133.183 33.3536 133.343 33.4003 133.507 33.4004H135.857C136.021 33.4012 136.182 33.355 136.318 33.2675C136.455 33.18 136.562 33.0553 136.625 32.9092L142.403 19.5761C142.485 19.3815 142.485 19.1634 142.402 18.969C142.32 18.7745 142.161 18.6193 141.96 18.5368Z"
              fill="#20463B"/>
        <path d="M87.0809 25.456V18.1523C87.0809 17.9399 86.9934 17.7362 86.8377 17.5861C86.682 17.4359 86.4708 17.3515 86.2506 17.3515H83.6677C83.5578 17.3501 83.4486 17.3698 83.3466 17.4094C83.2446 17.449 83.1518 17.5077 83.0735 17.5822C82.9952 17.6568 82.9331 17.7455 82.8907 17.8434C82.8483 17.9412 82.8264 18.0463 82.8264 18.1523V18.3659C81.5362 17.649 80.0731 17.2721 78.5841 17.2732C77.0951 17.2743 75.6325 17.6532 74.3434 18.372C73.0542 19.0908 71.9838 20.1241 71.2396 21.3681C70.4955 22.6122 70.1037 24.0232 70.1037 25.4596C70.1037 26.8959 70.4955 28.3069 71.2396 29.551C71.9838 30.7951 73.0542 31.8284 74.3434 32.5471C75.6325 33.2659 77.0951 33.6449 78.5841 33.6459C80.0731 33.647 81.5362 33.2702 82.8264 32.5532V32.6031C82.8264 32.8155 82.9139 33.0192 83.0696 33.1694C83.2253 33.3195 83.4365 33.4039 83.6567 33.4039H86.2396C86.3492 33.4053 86.4581 33.3858 86.5598 33.3464C86.6616 33.307 86.7543 33.2485 86.8325 33.1744C86.9107 33.1003 86.9729 33.0119 87.0155 32.9145C87.0582 32.817 87.0804 32.7124 87.0809 32.6066V25.456ZM78.561 29.5421C77.7253 29.5421 76.9085 29.3031 76.2137 28.8553C75.5189 28.4074 74.9774 27.771 74.6577 27.0263C74.3379 26.2816 74.2542 25.4622 74.4172 24.6716C74.5803 23.8811 74.9826 23.1549 75.5735 22.585C76.1644 22.015 76.9172 21.6269 77.7367 21.4696C78.5563 21.3124 79.4058 21.3931 80.1778 21.7015C80.9497 22.01 81.6096 22.5323 82.0738 23.2025C82.5381 23.8727 82.7858 24.6607 82.7858 25.4667C82.7858 26.5476 82.3407 27.5841 81.5484 28.3484C80.7561 29.1127 79.6815 29.5421 78.561 29.5421Z"
              fill="#20463B"/>
        <path d="M105.899 25.4561V13.1694C105.898 12.9573 105.81 12.7541 105.655 12.6041C105.499 12.4541 105.289 12.3695 105.069 12.3685H102.486C102.267 12.3704 102.057 12.4555 101.902 12.6054C101.748 12.7553 101.66 12.9579 101.66 13.1694V18.3695C100.369 17.6526 98.9061 17.2757 97.4171 17.2768C95.9281 17.2779 94.4656 17.6568 93.1765 18.3756C91.8873 19.0944 90.8169 20.1277 90.0727 21.3717C89.3285 22.6158 88.9368 24.0269 88.9368 25.4632C88.9368 26.8995 89.3285 28.3105 90.0727 29.5546C90.8169 30.7987 91.8873 31.832 93.1765 32.5507C94.4656 33.2695 95.9281 33.6485 97.4171 33.6495C98.9061 33.6506 100.369 33.2738 101.66 32.5568V32.6067C101.66 32.8191 101.747 33.0228 101.903 33.173C102.058 33.3231 102.27 33.4075 102.49 33.4075H105.073C105.292 33.4066 105.502 33.3218 105.657 33.1717C105.812 33.0216 105.899 32.8185 105.899 32.6067V25.4561ZM97.4125 29.5421C96.5762 29.5456 95.7577 29.3097 95.0606 28.8642C94.3635 28.4187 93.8191 27.7837 93.4964 27.0395C93.1737 26.2954 93.0872 25.4756 93.2478 24.6839C93.4084 23.8923 93.809 23.1645 94.3987 22.5926C94.9885 22.0207 95.7409 21.6305 96.5607 21.4714C97.3805 21.3123 98.2308 21.3915 99.004 21.6989C99.7771 22.0063 100.438 22.528 100.904 23.1981C101.369 23.8682 101.618 24.6565 101.619 25.4632C101.62 26.5416 101.178 27.5764 100.389 28.3409C99.6009 29.1055 98.5304 29.5374 97.4125 29.5421Z"
              fill="#20463B"/>
        <path d="M125.227 25.456V18.1523C125.227 17.9399 125.139 17.7362 124.983 17.5861C124.828 17.4359 124.617 17.3515 124.396 17.3515H121.814C121.595 17.3534 121.385 17.4386 121.231 17.5886C121.077 17.7385 120.991 17.9412 120.991 18.1523V18.3659C119.7 17.649 118.237 17.2721 116.748 17.2732C115.259 17.2743 113.797 17.6532 112.508 18.372C111.218 19.0908 110.148 20.1241 109.404 21.3681C108.66 22.6122 108.268 24.0232 108.268 25.4596C108.268 26.8959 108.66 28.3069 109.404 29.551C110.148 30.7951 111.218 31.8284 112.508 32.5471C113.797 33.2659 115.259 33.6449 116.748 33.6459C118.237 33.647 119.7 33.2702 120.991 32.5532V32.6031C120.991 32.8155 121.078 33.0192 121.234 33.1694C121.39 33.3195 121.601 33.4039 121.821 33.4039H124.404C124.624 33.4039 124.835 33.3195 124.991 33.1694C125.147 33.0192 125.234 32.8155 125.234 32.6031V25.456H125.227ZM116.725 29.5421C115.89 29.5421 115.073 29.3031 114.378 28.8553C113.683 28.4074 113.142 27.771 112.822 27.0263C112.502 26.2816 112.418 25.4622 112.581 24.6716C112.744 23.8811 113.147 23.1549 113.738 22.585C114.329 22.015 115.081 21.6269 115.901 21.4696C116.721 21.3124 117.57 21.3931 118.342 21.7015C119.114 22.01 119.774 22.5323 120.238 23.2025C120.702 23.8727 120.95 24.6607 120.95 25.4667C120.949 26.5473 120.504 27.5833 119.712 28.3474C118.919 29.1115 117.845 29.5411 116.725 29.5421Z"
              fill="#20463B"/>
        <path d="M151.499 17.2626C149.82 17.2626 148.179 17.7427 146.784 18.6422C145.388 19.5418 144.3 20.8203 143.658 22.3162C143.016 23.812 142.847 25.458 143.175 27.046C143.502 28.634 144.311 30.0927 145.498 31.2376C146.684 32.3825 148.197 33.1622 149.843 33.478C151.489 33.7939 153.196 33.6318 154.746 33.0122C156.297 32.3926 157.622 31.3433 158.555 29.9971C159.487 28.6508 159.985 27.0681 159.985 25.4489C159.985 23.2778 159.091 21.1956 157.5 19.6603C155.908 18.1251 153.749 17.2626 151.499 17.2626ZM151.499 29.5386C150.662 29.5407 149.845 29.3035 149.148 28.8569C148.452 28.4104 147.909 27.7747 147.587 27.0302C147.266 26.2857 147.181 25.4659 147.342 24.6747C147.504 23.8834 147.906 23.1563 148.496 22.5852C149.087 22.0142 149.839 21.625 150.659 21.4669C151.479 21.3088 152.329 21.3889 153.102 21.697C153.874 22.0051 154.535 22.5275 155 23.1979C155.464 23.8683 155.712 24.6567 155.712 25.4632C155.713 26.5428 155.27 27.5787 154.48 28.3435C153.69 29.1082 152.618 29.5393 151.499 29.5421V29.5386Z"
              fill="#20463B"/>
        <path d="M41.489 12.4078L32.3049 3.75876C29.6913 1.31071 26.1796 -0.0401816 22.5368 0.00116609C18.894 0.0425137 15.4162 1.47274 12.863 3.97944L3.89662 12.8385C1.35811 15.3603 -0.0423888 18.7488 0.00116958 22.2635C0.044728 25.7783 1.5288 29.1335 4.12908 31.596L13.3095 40.2415C15.9237 42.6898 19.436 44.0408 23.0794 43.9994C26.7228 43.9581 30.2013 42.5278 32.7551 40.0209L41.7178 31.1618C44.2556 28.6406 45.6561 25.2532 45.6132 21.7393C45.5703 18.2254 44.0876 14.8707 41.489 12.4078ZM25.0174 31.1796L24.534 32.3007C24.4431 32.5082 24.288 32.6835 24.0898 32.8027C23.8917 32.9218 23.6602 32.979 23.4271 32.9663H20.2538C20.047 32.9522 19.8484 32.8823 19.6808 32.7646C19.5131 32.647 19.3831 32.4862 19.3055 32.3007L18.8184 31.1796L18.0473 29.3999L11.5088 14.2373C11.4488 14.1057 11.417 13.9637 11.4153 13.8198C11.4135 13.676 11.442 13.5333 11.4988 13.4004C11.5557 13.2674 11.6398 13.1469 11.7461 13.0461C11.8525 12.9452 11.9788 12.8662 12.1176 12.8136L16.6562 10.9912C16.7924 10.9333 16.9394 10.9024 17.0884 10.9005C17.2373 10.8986 17.3851 10.9257 17.5229 10.9802C17.6607 11.0347 17.7857 11.1155 17.8904 11.2177C17.995 11.3199 18.0773 11.4414 18.1321 11.575L21.9105 20.3913L25.7 11.5963C25.8158 11.3303 26.0362 11.1195 26.3129 11.01C26.5896 10.9006 26.9 10.9015 27.176 11.0126L31.7145 12.835C31.853 12.8879 31.979 12.9672 32.0849 13.0682C32.1909 13.1691 32.2746 13.2897 32.3311 13.4226C32.3876 13.5556 32.4157 13.6981 32.4137 13.8418C32.4118 13.9854 32.3798 14.1272 32.3197 14.2587L25.7886 29.3892L25.0174 31.1796ZM32.2828 32.4431C31.5937 32.4438 30.9199 32.2474 30.3466 31.8786C29.7733 31.5098 29.3262 30.9853 29.062 30.3714C28.7978 29.7575 28.7283 29.0818 28.8623 28.4298C28.9963 27.7778 29.3278 27.1788 29.8147 26.7085C30.3017 26.2383 30.9224 25.9179 31.5982 25.788C32.2739 25.6581 32.9745 25.7244 33.6112 25.9786C34.2479 26.2328 34.7921 26.6635 35.175 27.2161C35.5579 27.7687 35.7623 28.4185 35.7623 29.0831C35.7623 29.9736 35.3958 30.8277 34.7434 31.4577C34.091 32.0878 33.2059 32.4422 32.2828 32.4431Z"
              fill="#20463B"/>
        <path d="M69.0301 18.5368L66.6538 17.5793C66.5533 17.5385 66.4454 17.5173 66.3364 17.5169C66.2273 17.5164 66.1193 17.5368 66.0184 17.5768C65.9176 17.6169 65.826 17.6758 65.7488 17.7501C65.6717 17.8244 65.6105 17.9128 65.569 18.01L61.7536 26.8086L57.9309 18.01C57.8461 17.8143 57.6843 17.659 57.4809 17.5782C57.2775 17.4975 57.0492 17.4979 56.8461 17.5793L54.4661 18.5368C54.2639 18.6193 54.1037 18.7757 54.0207 18.9718C53.9377 19.1679 53.9387 19.3878 54.0234 19.5832L59.8128 32.9163C59.8765 33.0619 59.9833 33.1861 60.1198 33.2734C60.2563 33.3608 60.4165 33.4074 60.5803 33.4075H62.9307C63.0945 33.4074 63.2546 33.3608 63.3911 33.2734C63.5276 33.1861 63.6344 33.0619 63.6982 32.9163L69.4765 19.5761C69.5587 19.381 69.5579 19.1626 69.4743 18.9681C69.3908 18.7736 69.2312 18.6186 69.0301 18.5368Z"
              fill="#20463B"/>
        <path d="M141.96 18.5368L139.584 17.5793C139.482 17.5356 139.372 17.5122 139.261 17.5103C139.15 17.5084 139.039 17.5281 138.936 17.5683C138.833 17.6084 138.739 17.6683 138.66 17.7442C138.581 17.82 138.519 17.9105 138.477 18.01L134.68 26.8086L130.869 18.01C130.827 17.9128 130.766 17.8244 130.689 17.7501C130.612 17.6758 130.52 17.6169 130.419 17.5768C130.318 17.5368 130.21 17.5164 130.101 17.5168C129.992 17.5173 129.884 17.5385 129.784 17.5793L127.407 18.5368C127.206 18.6186 127.047 18.7736 126.963 18.9681C126.88 19.1626 126.879 19.381 126.961 19.5761L132.739 32.9092C132.803 33.0547 132.91 33.1789 133.046 33.2663C133.183 33.3536 133.343 33.4003 133.507 33.4004H135.857C136.021 33.4012 136.182 33.355 136.318 33.2675C136.455 33.18 136.562 33.0553 136.625 32.9092L142.403 19.5761C142.485 19.3815 142.485 19.1634 142.402 18.969C142.32 18.7745 142.161 18.6193 141.96 18.5368Z"
              fill="#20463B"/>
        <path d="M87.0809 25.456V18.1523C87.0809 17.9399 86.9934 17.7362 86.8377 17.5861C86.682 17.4359 86.4708 17.3515 86.2506 17.3515H83.6677C83.5578 17.3501 83.4486 17.3698 83.3466 17.4094C83.2446 17.449 83.1518 17.5077 83.0735 17.5822C82.9952 17.6568 82.9331 17.7455 82.8907 17.8434C82.8483 17.9412 82.8264 18.0463 82.8264 18.1523V18.3659C81.5362 17.649 80.0731 17.2721 78.5841 17.2732C77.0951 17.2743 75.6325 17.6532 74.3434 18.372C73.0542 19.0908 71.9838 20.1241 71.2396 21.3681C70.4955 22.6122 70.1037 24.0232 70.1037 25.4596C70.1037 26.8959 70.4955 28.3069 71.2396 29.551C71.9838 30.7951 73.0542 31.8284 74.3434 32.5471C75.6325 33.2659 77.0951 33.6449 78.5841 33.6459C80.0731 33.647 81.5362 33.2702 82.8264 32.5532V32.6031C82.8264 32.8155 82.9139 33.0192 83.0696 33.1694C83.2253 33.3195 83.4365 33.4039 83.6567 33.4039H86.2396C86.3492 33.4053 86.4581 33.3858 86.5598 33.3464C86.6616 33.307 86.7543 33.2485 86.8325 33.1744C86.9107 33.1003 86.9729 33.0119 87.0155 32.9145C87.0582 32.817 87.0804 32.7124 87.0809 32.6066V25.456ZM78.561 29.5421C77.7253 29.5421 76.9085 29.3031 76.2137 28.8553C75.5189 28.4074 74.9774 27.771 74.6577 27.0263C74.3379 26.2816 74.2542 25.4622 74.4172 24.6716C74.5803 23.8811 74.9826 23.1549 75.5735 22.585C76.1644 22.015 76.9172 21.6269 77.7367 21.4696C78.5563 21.3124 79.4058 21.3931 80.1778 21.7015C80.9497 22.01 81.6096 22.5323 82.0738 23.2025C82.5381 23.8727 82.7858 24.6607 82.7858 25.4667C82.7858 26.5476 82.3407 27.5841 81.5484 28.3484C80.7561 29.1127 79.6815 29.5421 78.561 29.5421Z"
              fill="#20463B"/>
        <path d="M105.899 25.4561V13.1694C105.898 12.9573 105.81 12.7541 105.655 12.6041C105.499 12.4541 105.289 12.3695 105.069 12.3685H102.486C102.267 12.3704 102.057 12.4555 101.902 12.6054C101.748 12.7553 101.66 12.9579 101.66 13.1694V18.3695C100.369 17.6526 98.9061 17.2757 97.4171 17.2768C95.9281 17.2779 94.4656 17.6568 93.1765 18.3756C91.8873 19.0944 90.8169 20.1277 90.0727 21.3717C89.3285 22.6158 88.9368 24.0269 88.9368 25.4632C88.9368 26.8995 89.3285 28.3105 90.0727 29.5546C90.8169 30.7987 91.8873 31.832 93.1765 32.5507C94.4656 33.2695 95.9281 33.6485 97.4171 33.6495C98.9061 33.6506 100.369 33.2738 101.66 32.5568V32.6067C101.66 32.8191 101.747 33.0228 101.903 33.173C102.058 33.3231 102.27 33.4075 102.49 33.4075H105.073C105.292 33.4066 105.502 33.3218 105.657 33.1717C105.812 33.0216 105.899 32.8185 105.899 32.6067V25.4561ZM97.4125 29.5421C96.5762 29.5456 95.7577 29.3097 95.0606 28.8642C94.3635 28.4187 93.8191 27.7837 93.4964 27.0395C93.1737 26.2954 93.0872 25.4756 93.2478 24.6839C93.4084 23.8923 93.809 23.1645 94.3987 22.5926C94.9885 22.0207 95.7409 21.6305 96.5607 21.4714C97.3805 21.3123 98.2308 21.3915 99.004 21.6989C99.7771 22.0063 100.438 22.528 100.904 23.1981C101.369 23.8682 101.618 24.6565 101.619 25.4632C101.62 26.5416 101.178 27.5764 100.389 28.3409C99.6009 29.1055 98.5304 29.5374 97.4125 29.5421Z"
              fill="#20463B"/>
        <path d="M125.227 25.456V18.1523C125.227 17.9399 125.139 17.7362 124.983 17.5861C124.828 17.4359 124.617 17.3515 124.396 17.3515H121.814C121.595 17.3534 121.385 17.4386 121.231 17.5886C121.077 17.7385 120.991 17.9412 120.991 18.1523V18.3659C119.7 17.649 118.237 17.2721 116.748 17.2732C115.259 17.2743 113.797 17.6532 112.508 18.372C111.218 19.0908 110.148 20.1241 109.404 21.3681C108.66 22.6122 108.268 24.0232 108.268 25.4596C108.268 26.8959 108.66 28.3069 109.404 29.551C110.148 30.7951 111.218 31.8284 112.508 32.5471C113.797 33.2659 115.259 33.6449 116.748 33.6459C118.237 33.647 119.7 33.2702 120.991 32.5532V32.6031C120.991 32.8155 121.078 33.0192 121.234 33.1694C121.39 33.3195 121.601 33.4039 121.821 33.4039H124.404C124.624 33.4039 124.835 33.3195 124.991 33.1694C125.147 33.0192 125.234 32.8155 125.234 32.6031V25.456H125.227ZM116.725 29.5421C115.89 29.5421 115.073 29.3031 114.378 28.8553C113.683 28.4074 113.142 27.771 112.822 27.0263C112.502 26.2816 112.418 25.4622 112.581 24.6716C112.744 23.8811 113.147 23.1549 113.738 22.585C114.329 22.015 115.081 21.6269 115.901 21.4696C116.721 21.3124 117.57 21.3931 118.342 21.7015C119.114 22.01 119.774 22.5323 120.238 23.2025C120.702 23.8727 120.95 24.6607 120.95 25.4667C120.949 26.5473 120.504 27.5833 119.712 28.3474C118.919 29.1115 117.845 29.5411 116.725 29.5421Z"
              fill="#20463B"/>
        <path d="M151.499 17.2626C149.82 17.2626 148.179 17.7427 146.784 18.6422C145.388 19.5418 144.3 20.8203 143.658 22.3162C143.016 23.812 142.847 25.458 143.175 27.046C143.502 28.634 144.311 30.0927 145.498 31.2376C146.684 32.3825 148.197 33.1622 149.843 33.478C151.489 33.7939 153.196 33.6318 154.746 33.0122C156.297 32.3926 157.622 31.3433 158.555 29.9971C159.487 28.6508 159.985 27.0681 159.985 25.4489C159.985 23.2778 159.091 21.1956 157.5 19.6603C155.908 18.1251 153.749 17.2626 151.499 17.2626ZM151.499 29.5386C150.662 29.5407 149.845 29.3035 149.148 28.8569C148.452 28.4104 147.909 27.7747 147.587 27.0302C147.266 26.2857 147.181 25.4659 147.342 24.6747C147.504 23.8834 147.906 23.1563 148.496 22.5852C149.087 22.0142 149.839 21.625 150.659 21.4669C151.479 21.3088 152.329 21.3889 153.102 21.697C153.874 22.0051 154.535 22.5275 155 23.1979C155.464 23.8683 155.712 24.6567 155.712 25.4632C155.713 26.5428 155.27 27.5787 154.48 28.3435C153.69 29.1082 152.618 29.5393 151.499 29.5421V29.5386Z"
              fill="#20463B"/>
        <path d="M41.489 12.4078L32.3049 3.75876C29.6913 1.31071 26.1796 -0.0401816 22.5368 0.00116609C18.894 0.0425137 15.4162 1.47274 12.863 3.97944L3.89662 12.8385C1.35811 15.3603 -0.0423888 18.7488 0.00116958 22.2635C0.044728 25.7783 1.5288 29.1335 4.12908 31.596L13.3095 40.2415C15.9237 42.6898 19.436 44.0408 23.0794 43.9994C26.7228 43.9581 30.2013 42.5278 32.7551 40.0209L41.7178 31.1618C44.2556 28.6406 45.6561 25.2532 45.6132 21.7393C45.5703 18.2254 44.0876 14.8707 41.489 12.4078ZM25.0174 31.1796L24.534 32.3007C24.4431 32.5082 24.288 32.6835 24.0898 32.8027C23.8917 32.9218 23.6602 32.979 23.4271 32.9663H20.2538C20.047 32.9522 19.8484 32.8823 19.6808 32.7646C19.5131 32.647 19.3831 32.4862 19.3055 32.3007L18.8184 31.1796L18.0473 29.3999L11.5088 14.2373C11.4488 14.1057 11.417 13.9637 11.4153 13.8198C11.4135 13.676 11.442 13.5333 11.4988 13.4004C11.5557 13.2674 11.6398 13.1469 11.7461 13.0461C11.8525 12.9452 11.9788 12.8662 12.1176 12.8136L16.6562 10.9912C16.7924 10.9333 16.9394 10.9024 17.0884 10.9005C17.2373 10.8986 17.3851 10.9257 17.5229 10.9802C17.6607 11.0347 17.7857 11.1155 17.8904 11.2177C17.995 11.3199 18.0773 11.4414 18.1321 11.575L21.9105 20.3913L25.7 11.5963C25.8158 11.3303 26.0362 11.1195 26.3129 11.01C26.5896 10.9006 26.9 10.9015 27.176 11.0126L31.7145 12.835C31.853 12.8879 31.979 12.9672 32.0849 13.0682C32.1909 13.1691 32.2746 13.2897 32.3311 13.4226C32.3876 13.5556 32.4157 13.6981 32.4137 13.8418C32.4118 13.9854 32.3798 14.1272 32.3197 14.2587L25.7886 29.3892L25.0174 31.1796ZM32.2828 32.4431C31.5937 32.4438 30.9199 32.2474 30.3466 31.8786C29.7733 31.5098 29.3262 30.9853 29.062 30.3714C28.7978 29.7575 28.7283 29.0818 28.8623 28.4298C28.9963 27.7778 29.3278 27.1788 29.8147 26.7085C30.3017 26.2383 30.9224 25.9179 31.5982 25.788C32.2739 25.6581 32.9745 25.7244 33.6112 25.9786C34.2479 26.2328 34.7921 26.6635 35.175 27.2161C35.5579 27.7687 35.7623 28.4185 35.7623 29.0831C35.7623 29.9736 35.3958 30.8277 34.7434 31.4577C34.091 32.0878 33.2059 32.4422 32.2828 32.4431Z"
              fill="#20463B"/>
    </g>
    <defs>
        <clipPath id="clip0_9_1153">
            <rect width="160" height="44" fill="white"/>
        </clipPath>
    </defs>
</svg>